<svg width="9" height="10" viewBox="0 0 9 10" fill="none" xmlns="http://www.w3.org/2000/svg">
<path d="M0 9.324C1.328 8.46 2.28 7.748 2.856 7.188C3.24 6.812 3.58 6.384 3.876 5.904C4.172 5.416 4.404 4.904 4.572 4.368C4.748 3.832 4.836 3.3 4.836 2.772C4.836 2.3 4.764 1.884 4.62 1.524C4.476 1.156 4.268 0.868 3.996 0.66C3.724 0.452 3.4 0.348 3.024 0.348C2.88 0.348 2.728 0.364 2.568 0.396C2.416 0.428 2.256 0.476 2.088 0.54C1.744 0.668 1.48 0.836 1.296 1.044C1.112 1.244 1.02 1.436 1.02 1.62C1.02 1.692 1.052 1.744 1.116 1.776C1.18 1.808 1.24 1.824 1.296 1.824C1.376 1.824 1.476 1.808 1.596 1.776C1.652 1.76 1.704 1.748 1.752 1.74C1.808 1.732 1.864 1.728 1.92 1.728C2.224 1.728 2.472 1.82 2.664 2.004C2.856 2.18 2.952 2.416 2.952 2.712C2.952 3 2.832 3.248 2.592 3.456C2.352 3.664 2.068 3.768 1.74 3.768C1.348 3.768 1.012 3.644 0.732 3.396C0.452 3.148 0.312 2.828 0.312 2.436C0.312 1.964 0.444 1.544 0.708 1.176C0.972 0.808 1.328 0.52 1.776 0.312C2.232 0.104 2.736 0 3.288 0C3.896 0 4.44 0.132 4.92 0.396C5.4 0.66 5.78 1.024 6.06 1.488C6.348 1.944 6.492 2.464 6.492 3.048C6.492 3.808 6.28 4.536 5.856 5.232C5.64 5.592 5.392 5.932 5.112 6.252C4.84 6.572 4.492 6.9 4.068 7.236C3.644 7.564 3.112 7.92 2.472 8.304C1.832 8.688 1.036 9.116 0.084 9.588L0 9.324ZM7.644 1.092C7.828 1.092 7.984 1.156 8.112 1.284C8.24 1.412 8.304 1.568 8.304 1.752C8.304 1.936 8.24 2.092 8.112 2.22C7.984 2.34 7.828 2.4 7.644 2.4C7.46 2.4 7.304 2.34 7.176 2.22C7.048 2.092 6.984 1.936 6.984 1.752C6.984 1.568 7.048 1.412 7.176 1.284C7.304 1.156 7.46 1.092 7.644 1.092ZM7.644 3.732C7.828 3.732 7.984 3.796 8.112 3.924C8.24 4.052 8.304 4.208 8.304 4.392C8.304 4.576 8.24 4.732 8.112 4.86C7.984 4.98 7.828 5.04 7.644 5.04C7.46 5.04 7.304 4.98 7.176 4.86C7.048 4.732 6.984 4.576 6.984 4.392C6.984 4.208 7.048 4.052 7.176 3.924C7.304 3.796 7.46 3.732 7.644 3.732Z" fill="black"/>
</svg>
