<svg width="3" height="9" viewBox="0 0 3 9" fill="none" xmlns="http://www.w3.org/2000/svg">
<path d="M0 0H0.372V4.68C0.668 4.384 1.004 4.236 1.38 4.236C1.636 4.236 1.868 4.324 2.076 4.5C2.284 4.668 2.388 4.916 2.388 5.244C2.388 5.5 2.312 5.736 2.16 5.952C2.008 6.168 1.804 6.384 1.548 6.6L0.72 7.308C0.568 7.436 0.432 7.56 0.312 7.68C0.192 7.808 0.088 7.928 0 8.04V0ZM0.372 7.236C0.58 7.012 0.756 6.808 0.9 6.624C1.044 6.432 1.156 6.264 1.236 6.12C1.324 5.968 1.388 5.828 1.428 5.7C1.476 5.572 1.5 5.452 1.5 5.34C1.5 5.116 1.448 4.956 1.344 4.86C1.24 4.756 1.128 4.704 1.008 4.704C0.88 4.704 0.752 4.752 0.624 4.848C0.504 4.936 0.42 5.06 0.372 5.22V7.236Z" fill="black"/>
</svg>
