<svg width="6" height="8" viewBox="0 0 6 8" fill="none" xmlns="http://www.w3.org/2000/svg">
<path d="M5.376 1.38L2.148 0.96V4.908C2.148 5.364 2.012 5.744 1.74 6.048C1.476 6.352 1.12 6.504 0.672 6.504C0.224 6.504 0 6.312 0 5.928C0 5.736 0.052 5.556 0.156 5.388C0.26 5.212 0.4 5.072 0.576 4.968C0.752 4.856 0.944 4.8 1.152 4.8C1.352 4.8 1.54 4.836 1.716 4.908V0L5.808 0.54V5.436C5.808 5.764 5.736 6.052 5.592 6.3C5.448 6.54 5.264 6.724 5.04 6.852C4.824 6.98 4.592 7.044 4.344 7.044C3.896 7.044 3.672 6.848 3.672 6.456C3.672 6.136 3.792 5.868 4.032 5.652C4.272 5.436 4.544 5.328 4.848 5.328C5.032 5.328 5.208 5.364 5.376 5.436V1.38Z" fill="black"/>
</svg>
