<svg width="4" height="13" viewBox="0 0 4 13" fill="none" xmlns="http://www.w3.org/2000/svg">
<path d="M3.276 0H3.564V10.08C3.564 10.336 3.496 10.588 3.36 10.836C3.232 11.076 3.056 11.292 2.832 11.484C2.608 11.676 2.364 11.832 2.1 11.952C1.836 12.064 1.572 12.12 1.308 12.12C0.924 12.12 0.608 12.032 0.36 11.856C0.12 11.672 0 11.396 0 11.028C0 10.62 0.112 10.256 0.336 9.936C0.568 9.608 0.868 9.352 1.236 9.168C1.604 8.976 1.996 8.88 2.412 8.88C2.764 8.88 3.052 8.968 3.276 9.144V0ZM0.324 11.316C0.324 11.396 0.352 11.468 0.408 11.532C0.472 11.596 0.556 11.628 0.66 11.628C0.94 11.628 1.288 11.512 1.704 11.28C1.984 11.12 2.236 10.944 2.46 10.752C2.692 10.552 2.876 10.356 3.012 10.164C3.148 9.964 3.216 9.796 3.216 9.66C3.216 9.572 3.192 9.5 3.144 9.444C3.104 9.38 3.028 9.348 2.916 9.348C2.764 9.348 2.58 9.396 2.364 9.492C2.148 9.588 1.92 9.712 1.68 9.864C1.448 10.016 1.228 10.184 1.02 10.368C0.812 10.544 0.644 10.716 0.516 10.884C0.388 11.052 0.324 11.196 0.324 11.316Z" fill="black"/>
</svg>
