<svg width="4" height="4" viewBox="0 0 4 4" fill="none" xmlns="http://www.w3.org/2000/svg">
<path d="M1.308 3.24C0.924 3.24 0.608 3.152 0.36 2.976C0.12 2.792 0 2.516 0 2.148C0 1.74 0.112 1.376 0.336 1.056C0.568 0.728 0.868 0.472 1.236 0.288C1.604 0.0960001 1.996 0 2.412 0C2.764 0 3.044 0.0960001 3.252 0.288C3.46 0.472 3.564 0.736 3.564 1.08C3.564 1.472 3.46 1.832 3.252 2.16C3.044 2.488 2.768 2.752 2.424 2.952C2.088 3.144 1.716 3.24 1.308 3.24ZM0.324 2.436C0.324 2.516 0.352 2.588 0.408 2.652C0.472 2.716 0.556 2.748 0.66 2.748C0.94 2.748 1.288 2.632 1.704 2.4C1.984 2.24 2.236 2.064 2.46 1.872C2.692 1.672 2.876 1.476 3.012 1.284C3.148 1.084 3.216 0.916 3.216 0.78C3.216 0.692 3.192 0.62 3.144 0.564C3.104 0.5 3.028 0.468 2.916 0.468C2.764 0.468 2.58 0.516 2.364 0.612C2.148 0.708 1.92 0.832 1.68 0.984C1.448 1.136 1.228 1.304 1.02 1.488C0.812 1.664 0.644 1.836 0.516 2.004C0.388 2.172 0.324 2.316 0.324 2.436Z" fill="black"/>
</svg>
