<svg width="7" height="12" viewBox="0 0 7 12" fill="none" xmlns="http://www.w3.org/2000/svg">
<path d="M3.3 0H3.612C3.66 0.328 3.72 0.62 3.792 0.876C3.864 1.124 3.968 1.368 4.104 1.608C4.24 1.84 4.42 2.092 4.644 2.364C4.884 2.644 5.084 2.88 5.244 3.072C5.404 3.256 5.564 3.452 5.724 3.66C6.02 4.028 6.236 4.408 6.372 4.8C6.516 5.184 6.588 5.576 6.588 5.976C6.588 6.808 6.236 7.816 5.532 9H5.34C5.564 8.528 5.764 8.056 5.94 7.584C6.124 7.104 6.216 6.648 6.216 6.216C6.216 5.784 6.104 5.34 5.88 4.884C5.656 4.428 5.34 4.044 4.932 3.732C4.532 3.42 4.092 3.248 3.612 3.216V10.008C3.612 10.352 3.5 10.676 3.276 10.98C3.06 11.276 2.772 11.516 2.412 11.7C2.052 11.884 1.656 11.976 1.224 11.976C0.88 11.976 0.588 11.888 0.348 11.712C0.116 11.536 0 11.276 0 10.932C0 10.676 0.068 10.432 0.204 10.2C0.34 9.96 0.52 9.748 0.744 9.564C0.968 9.38 1.212 9.236 1.476 9.132C1.748 9.028 2.02 8.976 2.292 8.976C2.756 8.976 3.092 9.068 3.3 9.252V0Z" fill="black"/>
</svg>
