<svg width="4" height="12" viewBox="0 0 4 12" fill="none" xmlns="http://www.w3.org/2000/svg">
<path d="M3.588 0V10.032C3.588 10.376 3.472 10.696 3.24 10.992C3.016 11.288 2.724 11.528 2.364 11.712C2.004 11.888 1.624 11.976 1.224 11.976C0.856 11.976 0.56 11.884 0.336 11.7C0.112 11.508 0 11.252 0 10.932C0 10.684 0.072 10.444 0.216 10.212C0.36 9.98 0.548 9.772 0.78 9.588C1.02 9.396 1.28 9.248 1.56 9.144C1.84 9.032 2.116 8.976 2.388 8.976C2.732 8.976 3.028 9.076 3.276 9.276V0H3.588Z" fill="black"/>
</svg>
