<svg width="7" height="12" viewBox="0 0 7 12" fill="none" xmlns="http://www.w3.org/2000/svg">
<path d="M3.252 0H3.564C3.588 0.232 3.624 0.436 3.672 0.612C3.72 0.788 3.784 0.944 3.864 1.08C4 1.296 4.164 1.484 4.356 1.644C4.548 1.796 4.768 1.996 5.016 2.244C5.256 2.476 5.492 2.736 5.724 3.024C5.956 3.304 6.148 3.624 6.3 3.984C6.46 4.344 6.54 4.748 6.54 5.196C6.54 5.556 6.484 5.948 6.372 6.372C6.58 6.676 6.684 7.116 6.684 7.692C6.684 8.076 6.632 8.46 6.528 8.844C6.424 9.22 6.272 9.544 6.072 9.816H5.88C6.256 9.08 6.444 8.44 6.444 7.896C6.444 7.456 6.32 7.052 6.072 6.684C5.912 6.444 5.732 6.232 5.532 6.048C5.34 5.856 5.092 5.66 4.788 5.46C4.484 5.26 4.076 5.032 3.564 4.776V10.056C3.564 10.4 3.448 10.72 3.216 11.016C2.992 11.304 2.7 11.536 2.34 11.712C1.98 11.888 1.608 11.976 1.224 11.976C0.888 11.976 0.6 11.9 0.36 11.748C0.12 11.596 0 11.36 0 11.04C0 10.656 0.116 10.308 0.348 9.996C0.58 9.684 0.88 9.436 1.248 9.252C1.616 9.06 1.996 8.964 2.388 8.964C2.748 8.964 3.036 9.06 3.252 9.252V0ZM3.636 2.232C3.636 2.648 3.728 3.032 3.912 3.384C3.976 3.496 4.104 3.676 4.296 3.924C4.496 4.172 4.732 4.424 5.004 4.68C5.308 4.968 5.576 5.244 5.808 5.508C6.04 5.772 6.176 5.952 6.216 6.048C6.232 5.984 6.244 5.912 6.252 5.832C6.26 5.744 6.264 5.648 6.264 5.544C6.264 4.936 6.068 4.364 5.676 3.828C5.284 3.292 4.604 2.76 3.636 2.232Z" fill="black"/>
</svg>
