<svg width="7" height="16" viewBox="0 0 7 16" fill="none" xmlns="http://www.w3.org/2000/svg">
<path d="M6.396 8.424C6.492 8.72 6.54 9.04 6.54 9.384C6.54 9.52 6.528 9.664 6.504 9.816C6.488 9.968 6.46 10.128 6.42 10.296C6.612 10.544 6.708 10.936 6.708 11.472C6.708 11.84 6.656 12.22 6.552 12.612C6.456 12.996 6.304 13.34 6.096 13.644H5.904C6.264 12.9 6.444 12.252 6.444 11.7C6.444 11.196 6.3 10.752 6.012 10.368C5.732 9.976 5.312 9.604 4.752 9.252L3.564 8.496V13.908C3.564 14.244 3.448 14.56 3.216 14.856C2.992 15.144 2.7 15.38 2.34 15.564C1.98 15.74 1.608 15.828 1.224 15.828C0.84 15.828 0.54 15.748 0.324 15.588C0.108 15.428 0 15.156 0 14.772C0 14.516 0.072 14.272 0.216 14.04C0.36 13.808 0.548 13.6 0.78 13.416C1.012 13.232 1.264 13.088 1.536 12.984C1.816 12.872 2.092 12.816 2.364 12.816C2.556 12.816 2.728 12.84 2.88 12.888C3.032 12.936 3.156 13.016 3.252 13.128V0H3.564C3.588 0.28 3.648 0.528 3.744 0.744C3.84 0.952 3.996 1.176 4.212 1.416C4.436 1.656 4.744 1.964 5.136 2.34C5.528 2.708 5.824 3.056 6.024 3.384C6.224 3.704 6.36 4.016 6.432 4.32C6.504 4.624 6.54 4.936 6.54 5.256C6.54 5.472 6.528 5.66 6.504 5.82C6.48 5.98 6.44 6.14 6.384 6.3C6.432 6.476 6.468 6.652 6.492 6.828C6.524 7.004 6.54 7.184 6.54 7.368C6.54 7.72 6.492 8.072 6.396 8.424ZM3.612 2.184C3.612 2.704 3.836 3.176 4.284 3.6C4.66 3.96 4.968 4.268 5.208 4.524C5.456 4.772 5.66 5 5.82 5.208C5.98 5.416 6.112 5.636 6.216 5.868C6.24 5.724 6.252 5.588 6.252 5.46C6.252 5.068 6.176 4.716 6.024 4.404C5.88 4.092 5.68 3.808 5.424 3.552C5.176 3.296 4.896 3.06 4.584 2.844C4.272 2.62 3.948 2.4 3.612 2.184ZM3.612 4.296C3.612 4.592 3.68 4.868 3.816 5.124C3.904 5.292 4.04 5.468 4.224 5.652C4.408 5.836 4.6 6.02 4.8 6.204C5.064 6.444 5.324 6.712 5.58 7.008C5.836 7.296 6.048 7.62 6.216 7.98C6.24 7.836 6.252 7.7 6.252 7.572C6.252 7.316 6.216 7.076 6.144 6.852C6.08 6.62 5.984 6.404 5.856 6.204C5.704 5.948 5.52 5.724 5.304 5.532C5.088 5.332 4.856 5.144 4.608 4.968C4.448 4.856 4.284 4.744 4.116 4.632C3.948 4.512 3.78 4.4 3.612 4.296ZM3.588 6.384C3.612 6.768 3.72 7.112 3.912 7.416C4.104 7.712 4.344 7.996 4.632 8.268L5.544 9.12C5.712 9.272 5.852 9.416 5.964 9.552C6.076 9.688 6.16 9.812 6.216 9.924C6.224 9.86 6.228 9.808 6.228 9.768C6.228 9.728 6.228 9.684 6.228 9.636C6.228 8.428 5.348 7.344 3.588 6.384Z" fill="black"/>
</svg>
