<svg width="4" height="6" viewBox="0 0 4 6" fill="none" xmlns="http://www.w3.org/2000/svg">
<path d="M1.26 5.532L2.412 1.452C2.244 1.604 2.052 1.712 1.836 1.776C1.628 1.84 1.42 1.872 1.212 1.872C0.868 1.872 0.58 1.78 0.348 1.596C0.116 1.412 0 1.148 0 0.804C0 0.58 0.08 0.392 0.24 0.24C0.4 0.0799999 0.604 0 0.852 0C1.084 0 1.272 0.076 1.416 0.228C1.568 0.372 1.644 0.568 1.644 0.816C1.644 0.992 1.604 1.148 1.524 1.284C1.524 1.332 1.572 1.356 1.668 1.356C2.108 1.356 2.528 1.012 2.928 0.324H3.144L1.692 5.532H1.26Z" fill="black"/>
</svg>
