<svg width="4" height="9" viewBox="0 0 4 9" fill="none" xmlns="http://www.w3.org/2000/svg">
<path d="M1.26 8.46L2.412 4.38C2.244 4.532 2.052 4.64 1.836 4.704C1.628 4.768 1.42 4.8 1.212 4.8C0.868 4.8 0.58 4.708 0.348 4.524C0.116 4.34 0 4.076 0 3.732C0 3.508 0.076 3.32 0.228 3.168C0.388 3.008 0.596 2.928 0.852 2.928C1.084 2.928 1.272 3.004 1.416 3.156C1.568 3.3 1.644 3.496 1.644 3.744C1.644 3.92 1.604 4.076 1.524 4.212C1.524 4.26 1.572 4.284 1.668 4.284C1.996 4.284 2.308 4.1 2.604 3.732L3.228 1.452C3.06 1.604 2.868 1.712 2.652 1.776C2.444 1.84 2.236 1.872 2.028 1.872C1.684 1.872 1.396 1.78 1.164 1.596C0.932 1.412 0.816 1.148 0.816 0.804C0.816 0.58 0.896 0.392 1.056 0.24C1.216 0.0800002 1.42 0 1.668 0C1.908 0 2.1 0.076 2.244 0.228C2.388 0.38 2.46 0.576 2.46 0.816C2.46 0.896 2.448 0.98 2.424 1.068C2.4 1.148 2.372 1.22 2.34 1.284C2.34 1.332 2.388 1.356 2.484 1.356C2.924 1.356 3.344 1.012 3.744 0.324H3.96L1.692 8.46H1.26Z" fill="black"/>
</svg>
