<svg width="4" height="10" viewBox="0 0 4 10" fill="none" xmlns="http://www.w3.org/2000/svg">
<path d="M1.152 0L3.072 2.34C2.672 2.812 2.364 3.22 2.148 3.564C1.932 3.908 1.824 4.256 1.824 4.608C1.824 4.904 1.92 5.216 2.112 5.544C2.304 5.864 2.608 6.272 3.024 6.768L2.832 7.032C2.48 6.808 2.152 6.696 1.848 6.696C1.624 6.696 1.456 6.772 1.344 6.924C1.232 7.068 1.176 7.244 1.176 7.452C1.176 7.708 1.228 7.952 1.332 8.184C1.444 8.408 1.592 8.624 1.776 8.832L1.62 9.06C1.068 8.66 0.66 8.296 0.396 7.968C0.132 7.64 0 7.284 0 6.9C0 6.556 0.108 6.304 0.324 6.144C0.54 5.984 0.8 5.904 1.104 5.904C1.344 5.904 1.656 5.996 2.04 6.18V6.156L0.192 3.696C1 2.984 1.404 2.32 1.404 1.704C1.404 1.216 1.148 0.648 0.636 0H1.152Z" fill="black"/>
</svg>
