<svg width="5" height="12" viewBox="0 0 5 12" fill="none" xmlns="http://www.w3.org/2000/svg">
<path d="M1.26 11.508L2.412 7.428C2.244 7.58 2.052 7.688 1.836 7.752C1.628 7.816 1.42 7.848 1.212 7.848C0.868 7.848 0.58 7.756 0.348 7.572C0.116 7.388 0 7.124 0 6.78C0 6.564 0.08 6.376 0.24 6.216C0.4 6.056 0.604 5.976 0.852 5.976C1.084 5.976 1.272 6.052 1.416 6.204C1.568 6.348 1.644 6.544 1.644 6.792C1.644 6.968 1.604 7.124 1.524 7.26C1.524 7.308 1.572 7.332 1.668 7.332C1.996 7.332 2.308 7.148 2.604 6.78L3.228 4.5C3.06 4.652 2.868 4.76 2.652 4.824C2.444 4.888 2.236 4.92 2.028 4.92C1.684 4.92 1.396 4.828 1.164 4.644C0.932 4.46 0.816 4.196 0.816 3.852C0.816 3.62 0.896 3.428 1.056 3.276C1.216 3.124 1.42 3.048 1.668 3.048C1.908 3.048 2.1 3.124 2.244 3.276C2.388 3.428 2.46 3.624 2.46 3.864C2.46 3.944 2.448 4.028 2.424 4.116C2.4 4.196 2.372 4.268 2.34 4.332C2.34 4.38 2.388 4.404 2.484 4.404C2.812 4.404 3.12 4.224 3.408 3.864L4.08 1.452C3.912 1.604 3.72 1.712 3.504 1.776C3.296 1.84 3.088 1.872 2.88 1.872C2.536 1.872 2.248 1.78 2.016 1.596C1.784 1.412 1.668 1.148 1.668 0.804C1.668 0.572 1.748 0.38 1.908 0.228C2.068 0.076 2.272 0 2.52 0C2.76 0 2.952 0.076 3.096 0.228C3.24 0.38 3.312 0.576 3.312 0.816C3.312 0.896 3.3 0.98 3.276 1.068C3.252 1.148 3.224 1.22 3.192 1.284C3.192 1.332 3.24 1.356 3.336 1.356C3.768 1.356 4.188 1.012 4.596 0.324H4.812L1.692 11.508H1.26Z" fill="black"/>
</svg>
