<svg width="8" height="21" viewBox="0 0 8 21" fill="none" xmlns="http://www.w3.org/2000/svg">
<path d="M3.168 6.396C3.056 5.972 2.964 5.552 2.892 5.136C2.82 4.72 2.784 4.296 2.784 3.864C2.784 3.488 2.808 3.136 2.856 2.808C2.912 2.472 2.988 2.164 3.084 1.884C3.188 1.564 3.324 1.264 3.492 0.984C3.66 0.696 3.836 0.46 4.02 0.276C4.212 0.092 4.38 0 4.524 0C4.716 0 4.98 0.34 5.316 1.02C5.484 1.364 5.608 1.736 5.688 2.136C5.768 2.536 5.808 2.964 5.808 3.42C5.808 3.988 5.732 4.556 5.58 5.124C5.428 5.684 5.204 6.212 4.908 6.708C4.62 7.204 4.272 7.64 3.864 8.016L4.284 10.032C4.404 10.016 4.504 10.004 4.584 9.996C4.664 9.988 4.724 9.984 4.764 9.984C5.252 9.984 5.688 10.124 6.072 10.404C6.456 10.676 6.76 11.036 6.984 11.484C7.216 11.932 7.332 12.424 7.332 12.96C7.332 13.576 7.172 14.132 6.852 14.628C6.54 15.116 6.068 15.476 5.436 15.708C5.476 15.844 5.592 16.412 5.784 17.412C5.832 17.652 5.868 17.84 5.892 17.976C5.916 18.12 5.932 18.244 5.94 18.348C5.948 18.452 5.952 18.572 5.952 18.708C5.952 19.108 5.852 19.464 5.652 19.776C5.46 20.096 5.196 20.344 4.86 20.52C4.532 20.696 4.164 20.784 3.756 20.784C3.34 20.784 2.972 20.704 2.652 20.544C2.332 20.392 2.08 20.176 1.896 19.896C1.712 19.624 1.62 19.308 1.62 18.948C1.62 18.564 1.724 18.244 1.932 17.988C2.148 17.732 2.452 17.604 2.844 17.604C3.18 17.604 3.452 17.724 3.66 17.964C3.876 18.212 3.984 18.504 3.984 18.84C3.984 19.128 3.884 19.38 3.684 19.596C3.484 19.812 3.224 19.92 2.904 19.92H2.784C2.992 20.232 3.32 20.388 3.768 20.388C4.32 20.388 4.752 20.208 5.064 19.848C5.376 19.488 5.532 19.028 5.532 18.468C5.532 18.332 5.516 18.148 5.484 17.916C5.452 17.692 5.396 17.42 5.316 17.1C5.236 16.78 5.172 16.516 5.124 16.308C5.084 16.1 5.056 15.952 5.04 15.864C4.768 15.944 4.448 15.984 4.08 15.984C3.392 15.984 2.72 15.784 2.064 15.384C1.424 14.984 0.92 14.456 0.552 13.8C0.184 13.144 0 12.436 0 11.676C0 10.956 0.164 10.28 0.492 9.648C0.82 9.016 1.224 8.436 1.704 7.908C2.192 7.38 2.68 6.876 3.168 6.396ZM3.492 6.096C3.676 6 3.872 5.824 4.08 5.568C4.288 5.304 4.488 5.004 4.68 4.668C4.872 4.332 5.028 3.996 5.148 3.66C5.268 3.316 5.328 3.008 5.328 2.736C5.328 2.448 5.284 2.22 5.196 2.052C5.108 1.884 4.956 1.8 4.74 1.8C4.548 1.8 4.36 1.888 4.176 2.064C4 2.24 3.84 2.476 3.696 2.772C3.56 3.06 3.452 3.384 3.372 3.744C3.292 4.104 3.252 4.472 3.252 4.848C3.252 5.104 3.276 5.336 3.324 5.544C3.38 5.752 3.436 5.936 3.492 6.096ZM4.176 11.46C3.96 11.508 3.756 11.612 3.564 11.772C3.372 11.924 3.216 12.112 3.096 12.336C2.984 12.552 2.928 12.784 2.928 13.032C2.928 13.232 2.98 13.44 3.084 13.656C3.188 13.864 3.316 14.032 3.468 14.16C3.572 14.256 3.676 14.328 3.78 14.376C3.9 14.432 3.96 14.484 3.96 14.532C3.96 14.556 3.92 14.58 3.84 14.604C3.536 14.532 3.26 14.396 3.012 14.196C2.772 13.996 2.58 13.756 2.436 13.476C2.3 13.188 2.232 12.884 2.232 12.564C2.232 12.22 2.3 11.888 2.436 11.568C2.58 11.248 2.776 10.96 3.024 10.704C3.28 10.448 3.568 10.256 3.888 10.128L3.54 8.316C2.612 9.068 1.928 9.808 1.488 10.536C1.056 11.256 0.84 11.972 0.84 12.684C0.84 13.204 0.976 13.688 1.248 14.136C1.52 14.584 1.892 14.948 2.364 15.228C2.836 15.5 3.368 15.636 3.96 15.636C4.12 15.636 4.28 15.62 4.44 15.588C4.608 15.556 4.784 15.516 4.968 15.468L4.176 11.46ZM5.34 15.348C6.124 15.012 6.516 14.324 6.516 13.284C6.516 12.94 6.428 12.628 6.252 12.348C6.076 12.06 5.84 11.832 5.544 11.664C5.248 11.496 4.916 11.412 4.548 11.412L5.34 15.348Z" fill="black"/>
</svg>
