<?xml version="1.0" standalone="no"?>
<!DOCTYPE svg PUBLIC "-//W3C//DTD SVG 20010904//EN"
 "http://www.w3.org/TR/2001/REC-SVG-20010904/DTD/svg10.dtd">
<svg version="1.0" xmlns="http://www.w3.org/2000/svg"
 width="260.000000pt" height="260.000000pt" viewBox="0 0 260.000000 260.000000"
 preserveAspectRatio="xMidYMid meet">
<metadata>
Created by potrace 1.14, written by Peter Selinger 2001-2017
</metadata>
<g transform="translate(0.000000,260.000000) scale(0.100000,-0.100000)"
fill="#000000" stroke="none">
<path d="M1575 2535 c-27 -7 -74 -23 -103 -34 -30 -12 -76 -21 -106 -21 -74 0
-106 -26 -177 -140 -68 -110 -84 -156 -69 -195 10 -26 -2 -49 -137 -278 -81
-138 -216 -366 -298 -507 -119 -201 -157 -258 -180 -269 -47 -22 -62 -39 -127
-146 -65 -107 -79 -158 -57 -210 7 -16 14 -69 15 -117 4 -159 57 -283 168
-394 181 -181 437 -224 662 -111 38 19 88 37 111 40 60 7 83 29 159 151 54 88
68 119 72 160 2 28 8 56 12 61 5 6 24 37 43 70 19 33 121 209 227 390 106 182
225 386 264 454 39 68 87 142 107 165 20 22 60 82 89 131 60 100 60 97 42 285
-16 164 -59 259 -166 365 -119 118 -238 165 -411 164 -49 0 -112 -6 -140 -14z
m-116 -141 c55 -46 52 -79 -19 -199 -34 -58 -74 -114 -88 -125 -63 -50 -161
-1 -162 82 0 28 15 62 61 137 33 56 70 108 82 116 34 24 91 19 126 -11z m270
-330 c116 -69 211 -131 211 -138 0 -15 -29 -56 -40 -56 -7 0 -407 235 -420
247 -4 3 30 73 36 73 1 0 97 -57 213 -126z m67 95 c54 -30 74 -53 74 -83 0
-25 -16 -20 -106 35 -83 50 -96 63 -71 72 27 11 52 6 103 -24z m-145 -211 c65
-40 119 -78 119 -85 0 -14 -39 -43 -58 -43 -7 0 -53 23 -102 52 -96 56 -117
82 -98 123 6 14 13 25 15 25 3 0 58 -33 124 -72z m524 48 c35 -15 65 -59 65
-97 0 -30 -115 -224 -148 -249 -30 -24 -89 -26 -120 -4 -25 17 -52 64 -52 91
0 29 133 244 161 259 31 17 52 17 94 0z m-644 -166 c160 -49 339 -212 339
-309 0 -99 -129 -136 -195 -55 -76 91 -124 132 -179 153 -196 73 -413 -48
-471 -263 -65 -240 137 -460 370 -403 75 19 114 11 157 -30 38 -36 40 -102 4
-138 -59 -59 -269 -73 -401 -26 -221 79 -355 270 -355 506 0 162 56 292 180
415 120 121 232 168 396 169 65 1 111 -5 155 -19z m-890 -807 c35 -21 63 -75
53 -106 -3 -12 -35 -70 -70 -128 -78 -130 -106 -148 -180 -113 -37 18 -64 58
-64 95 0 32 106 214 142 244 35 29 78 32 119 8z m362 -238 c86 -51 113 -82
103 -121 -5 -20 -12 -25 -26 -21 -36 9 -230 130 -230 143 0 16 39 44 60 44 8
0 50 -20 93 -45z m-61 -132 c114 -69 208 -130 208 -135 0 -13 -31 -58 -41 -58
-9 0 -419 246 -432 259 -14 14 22 74 40 66 9 -3 110 -63 225 -132z m-69 -121
c77 -47 84 -57 55 -75 -21 -14 -55 -3 -112 35 -57 38 -72 58 -63 83 9 21 20
17 120 -43z m502 42 c20 -9 40 -30 50 -51 21 -44 13 -68 -68 -200 -61 -98 -89
-118 -148 -106 -35 7 -89 65 -89 97 0 12 30 74 68 136 49 83 75 116 97 126 39
17 51 17 90 -2z"/>
</g>
</svg>
