<svg width="88" height="26" viewBox="0 0 88 26" fill="none" xmlns="http://www.w3.org/2000/svg">
<path d="M26 4.02296C28.5868 4.02296 31.1736 4.02296 33.7604 4.02296C35.3393 4.02296 36.9288 3.9713 38.5071 4.02296C39.7947 4.06511 38.1848 5.85761 37.9044 6.3149C35.0007 11.0499 31.4421 15.2678 28.524 19.9694C27.7476 21.2204 26 23.3395 26 25" stroke="white" stroke-linecap="round"/>
<path d="M36.6269 11.6393C37.0911 11.5098 38.1733 10.1938 38.3872 10.9593C38.5419 11.5131 38.6007 12.309 38.8957 12.7992C39.9966 14.6283 41.8496 13.8979 38.2503 13.6191C35.6447 13.4173 32.7278 13.8936 30.1726 13.3591C28.9684 13.1073 34.4539 11.1524 34.671 11.0993C41.0163 9.54913 88.3407 8.60271 86.9708 3" stroke="white" stroke-linecap="round"/>
<path d="M16.6224 6.15516C16.6224 2.75932 13.0225 1.64021 9.91878 1.0759C5.62966 0.296059 2.87923 5.71064 1.87446 8.8366C0.0822603 14.4123 0.575243 21.9177 7.85613 22.3727C10.4659 22.5358 14.1136 22.8145 16.3903 21.2383C17.3739 20.5573 18.4807 20.3498 19.4327 19.5881C20.3064 18.8892 21.275 17.7517 22.1915 17.2935" stroke="white" stroke-linecap="round"/>
<path d="M16.9055 12.3777C16.1397 12.3777 15.4186 12.2574 15.0961 13.0193C14.6234 14.1362 16.0142 14.2348 16.6637 13.7322C16.9981 13.4735 16.9748 13.139 17.0757 12.7876C17.1345 12.583 18.2412 12.6985 18.4283 12.6985C19.295 12.6985 19.9691 11.0249 19.9691 12.8589C19.9691 14.1342 22.0365 13.3752 22.3518 12.5737C22.4267 12.3832 22.5231 13.2507 22.5489 13.3758C22.6855 14.0382 22.7512 14.7189 22.8355 15.3898C22.8918 15.8375 23.1026 18.6132 22.307 17.8762C21.8709 17.4722 20.8556 17.1582 21.8233 16.388C22.7232 15.6717 23.4124 14.4749 24 13.5005" stroke="white" stroke-linecap="round"/>
</svg>
