<?xml version="1.0" encoding="UTF-8" standalone="no"?>
<!-- Generator: Adobe InDesign 5.0 SVG Export Plug-in, SVG Library version: 6.0 build 100 -->
<svg
   xmlns:dc="http://purl.org/dc/elements/1.1/"
   xmlns:cc="http://creativecommons.org/ns#"
   xmlns:rdf="http://www.w3.org/1999/02/22-rdf-syntax-ns#"
   xmlns:svg="http://www.w3.org/2000/svg"
   xmlns="http://www.w3.org/2000/svg"
   xmlns:xlink="http://www.w3.org/1999/xlink"
   xmlns:sodipodi="http://sodipodi.sourceforge.net/DTD/sodipodi-0.dtd"
   xmlns:inkscape="http://www.inkscape.org/namespaces/inkscape"
   version="1.0"
   x="0pt"
   y="0pt"
   width="1750"
   height="1000"
   xml:space="preserve"
   id="svg2"
   sodipodi:version="0.32"
   inkscape:version="0.46"
   sodipodi:docname="Reis Mags Orient.svg"
   inkscape:output_extension="org.inkscape.output.svg.inkscape"><metadata
   id="metadata192"><rdf:RDF><cc:Work
       rdf:about=""><dc:format>image/svg+xml</dc:format><dc:type
         rdf:resource="http://purl.org/dc/dcmitype/StillImage" /></cc:Work></rdf:RDF></metadata><defs
   id="defs190"><linearGradient
   id="linearGradient3341"><stop
     style="stop-color:#00358f;stop-opacity:1;"
     offset="0"
     id="stop3343" /><stop
     style="stop-color:#b3d9ff;stop-opacity:1;"
     offset="1"
     id="stop3345" /></linearGradient><inkscape:perspective
   sodipodi:type="inkscape:persp3d"
   inkscape:vp_x="0 : 372.04749 : 1"
   inkscape:vp_y="0 : 1000 : 0"
   inkscape:vp_z="1052.3625 : 372.04749 : 1"
   inkscape:persp3d-origin="526.18127 : 248.03166 : 1"
   id="perspective194" /><linearGradient
   inkscape:collect="always"
   xlink:href="#linearGradient3341"
   id="linearGradient3347"
   x1="602.77777"
   y1="145.67584"
   x2="602.77777"
   y2="875.06024"
   gradientUnits="userSpaceOnUse"
   gradientTransform="scale(1.1666667,1)" />
	
	
	
	
	
	
	
	
	
	
	
	
	
	
	
	
	
	
	
	
	
	
	
	
	
	
	
	
	
	
	
	
	
	
	
	
	
	
	
	
	
	
	
	
	

		
	
		
	
		
	
		
	
		
	
		
	
		
	
		
	
		
	
		
	
		
	
		
	
		
	
		
	
		
	
		
	
		
	
		
	
		
	
		
	
		
	
		
	
		
	
		
	
		
	
		
	
		
	
		
	
		
	
		
	
		
	
		
	
		
	
		
	
		
	
		
	
		
	
		
	
		
	
		
	
		
	
		
	
		
	
		
	<filter
   inkscape:collect="always"
   id="filter3741"><feGaussianBlur
     inkscape:collect="always"
     stdDeviation="8.9871804"
     id="feGaussianBlur3743" /></filter><filter
   inkscape:collect="always"
   id="filter3827"
   x="-0.036948282"
   width="1.0738966"
   y="-0.28647569"
   height="1.5729514"><feGaussianBlur
     inkscape:collect="always"
     stdDeviation="12.102272"
     id="feGaussianBlur3829" /></filter></defs><sodipodi:namedview
   inkscape:window-height="1012"
   inkscape:window-width="1390"
   inkscape:pageshadow="2"
   inkscape:pageopacity="0.0"
   guidetolerance="10.0"
   gridtolerance="10.0"
   objecttolerance="10.0"
   borderopacity="1.0"
   bordercolor="#666666"
   pagecolor="#ffffff"
   id="base"
   showgrid="false"
   units="pt"
   inkscape:zoom="0.73885714"
   inkscape:cx="875"
   inkscape:cy="500"
   inkscape:window-x="0"
   inkscape:window-y="22"
   inkscape:current-layer="svg2" />
<clipPath
   id="clp1"
   fill="none">
	<path
   shape-rendering="crispEdges"
   d="M 0,0 L 841.89,0 L 841.89,595.276 L 0,595.276 L 0,0 z"
   id="path5"
   style="stroke:#000000" />
</clipPath>
<rect
   style="opacity:1;fill:url(#linearGradient3347);fill-opacity:1;fill-rule:nonzero;stroke:none;stroke-width:0.30000001;stroke-linecap:butt;stroke-linejoin:miter;marker:none;marker-start:none;marker-mid:none;marker-end:none;stroke-miterlimit:4;stroke-dasharray:none;stroke-dashoffset:0;stroke-opacity:1;visibility:visible;display:inline;overflow:visible;enable-background:accumulate"
   id="rect2567"
   width="1750"
   height="875"
   x="0"
   y="0" /><g
   id="g65"
   transform="matrix(1.5108917,0,0,1.5108917,62.122277,408.13446)">
		
	</g><g
   id="g3891"
   transform="matrix(1.1395499,0,0,1.1395499,-8.7141329,-122.11391)"><path
     id="path11"
     d="M 176.16837,460.7818 C 165.24519,460.80149 156.13542,467.68977 156.13542,472.03471 C 156.13543,478.07984 156.13047,482.12065 164.52647,482.12065 C 172.92248,482.12064 171.59942,478.92538 181.00295,478.92538 C 190.40648,478.92538 194.7565,483.12327 194.7565,486.64959 C 194.7565,486.79921 194.76727,486.96503 194.78429,487.12194 C 193.1845,487.68253 191.37356,488.44067 188.89388,489.51144 C 181.22731,492.82149 174.26579,499.23969 168.38858,506.46026 C 162.51138,513.68083 164.04565,522.41482 165.2211,525.43739 C 166.39654,528.45995 172.08393,530.66337 175.94609,530.32754 C 176.09032,530.31499 176.22493,530.29415 176.36286,530.27197 C 176.13755,532.24389 175.83135,534.95703 175.61267,537.69055 C 175.15458,543.42133 155.4831,566.24013 153.46806,571.9494 C 152.81709,573.79385 153.54984,575.6101 155.10738,577.36746 C 153.5129,579.63003 152.14,581.7643 151.10634,583.70243 C 145.87287,593.5152 142.7572,610.95739 139.38109,624.0184 L 124.73842,623.51827 L 118.01446,630.21444 L 114.40242,654.02615 C 110.0303,657.08481 106.49182,659.66012 105.84465,661.02795 C 105.55989,661.6308 105.51309,662.88806 105.73351,664.58443 C 85.211714,680.37013 74.575639,693.54446 73.030626,697.89858 C 71.183504,703.10412 75.882789,756.84618 77.226154,758.52535 C 78.569515,760.20455 79.920085,757.01171 80.088004,754.99666 C 80.255925,752.98162 77.906249,721.40947 79.921294,720.73782 C 81.936337,720.06614 85.609944,730.489 86.617468,738.38126 C 87.624988,746.27351 87.61899,747.27586 83.588908,762.22075 C 79.558823,777.16565 69.150419,791.76934 67.807055,797.64656 C 66.463693,803.52377 68.83752,833.42506 68.501679,838.46266 C 68.165838,843.50026 65.480384,849.35664 64.472861,856.74516 C 63.46534,864.13364 66.149644,868.51388 64.80628,870.19307 C 63.462919,871.87228 62.444559,875.05544 62.444559,875.05544 C 62.444559,875.05544 89.145901,875.05544 89.145898,875.05544 C 89.145898,875.05544 89.150738,873.20473 88.47906,871.69346 C 87.807379,870.18217 82.434045,868.18054 80.754843,865.99755 C 79.075641,863.81458 77.729912,853.55845 77.226154,848.52081 C 76.722393,843.48321 80.246239,814.43955 81.421682,812.92829 C 82.597123,811.41701 84.446612,803.17218 84.950371,799.81379 C 85.454131,796.45538 98.541996,772.11101 101.73248,768.41679 C 103.27882,766.6263 107.01084,763.92718 111.59614,760.91486 C 112.39634,766.4013 113.05587,771.81471 112.98539,774.14049 C 112.81747,779.68185 112.65081,790.43206 108.95657,796.81302 C 105.26232,803.19399 103.75836,814.10001 104.0942,817.29052 C 104.43005,820.48101 112.98775,830.39409 116.51408,835.76752 C 120.0404,841.14097 125.26029,855.92122 126.09989,858.44004 C 126.93949,860.95884 127.26686,869.16504 127.26685,869.16503 C 125.0839,871.68384 124.07158,875.05544 124.07158,875.05544 C 124.07158,875.05544 149.07804,875.05544 149.07804,875.05544 C 149.07804,875.05544 148.58759,872.87372 147.24423,871.02662 C 145.90087,869.1795 142.37346,866.82267 139.68673,864.13595 C 137.00001,861.44923 131.13622,848.19471 130.1287,843.32503 C 129.12118,838.45534 126.76793,817.78466 126.60001,814.76209 C 126.4321,811.73953 125.76283,800.17018 126.26659,796.97972 C 126.77035,793.78924 134.81103,771.27635 136.65817,763.88785 C 137.7504,759.51892 139.60983,751.05526 141.04819,743.32698 C 149.59905,738.75537 158.24565,734.68586 161.02557,734.68586 C 165.3915,734.68586 178.30517,742.22637 194.08966,748.43941 C 209.87416,754.65247 231.53766,755.67307 236.23944,762.05404 C 240.9412,768.43501 228.68556,802.3494 228.1818,805.20407 C 227.67804,808.05871 224.32937,812.93184 222.98601,816.29027 C 221.64265,819.64867 222.96548,836.95013 221.95797,842.49148 C 220.95045,848.03285 216.941,865.98058 215.2618,868.33148 C 213.5826,870.68236 213.23349,875.05544 213.2335,875.05544 C 213.2335,875.05544 239.60142,875.05544 239.60142,875.05544 C 239.60142,875.05544 239.10493,874.20987 238.60116,872.02688 C 238.0974,869.84392 234.05774,869.01405 232.21062,866.83109 C 230.36349,864.64813 233.39328,853.90036 235.07247,843.82515 C 236.75167,833.74995 243.45384,824.84322 244.7972,821.65276 C 246.14056,818.46228 245.46524,816.28314 245.29733,809.56631 C 245.15167,803.73985 254.72878,787.93768 265.16357,772.77903 C 271.8001,781.98491 282.65293,802.46158 283.25158,803.50919 C 283.92326,804.68463 286.96629,814.60139 288.14173,817.62394 C 289.31717,820.6465 295.69076,828.21238 296.8662,831.7387 C 298.04164,835.26502 301.39636,850.20118 301.22844,852.21621 C 301.06052,854.23125 303.06829,866.98691 302.2287,868.49819 C 301.38909,870.00947 299.89476,875.05544 299.89476,875.05544 C 299.89476,875.05544 325.90147,875.05544 325.90148,875.05544 C 325.90148,875.05544 326.07303,873.86914 325.40135,872.69372 C 324.72966,871.51828 320.37713,869.67119 319.70543,868.83161 C 319.03375,867.99201 315.67547,856.90958 311.98122,849.52107 C 308.28697,842.13258 307.09468,828.20283 306.59094,825.34816 C 306.08717,822.49352 307.59967,813.42606 306.42423,809.89973 C 305.24878,806.3734 300.88296,799.65921 298.70001,797.97998 C 296.51705,796.30078 297.02213,791.75876 290.80908,779.83641 C 287.09179,772.70324 284.17685,758.20157 282.41803,747.63365 C 288.40426,738.47456 292.6869,731.48908 293.83764,730.12913 C 295.68476,727.94617 306.2646,725.08922 316.84358,722.73833 C 327.42255,720.38745 344.71909,706.64242 347.57374,703.9557 C 350.42839,701.26898 350.75437,701.41796 360.49374,679.5883 C 367.72236,663.38468 369.59864,646.09219 370.07955,638.24429 C 375.89228,638.15966 382.44522,637.38549 387.5285,634.93788 C 401.13004,628.389 400.9381,620.84891 404.00498,621.15655 C 407.36338,621.49239 416.5855,622.17736 417.42511,619.32274 C 417.73275,618.27626 415.47239,616.55586 412.47939,614.82158 C 414.96864,612.27725 417.65924,609.24369 417.92524,607.73641 C 418.429,604.88177 405.16472,597.82079 402.3101,597.31706 C 399.45546,596.81329 385.84698,601.6817 380.1377,601.34588 C 374.42842,601.01004 361.51095,596.98727 359.16007,596.48351 C 356.80918,595.97974 350.42355,601.01003 348.24058,601.34588 C 346.05762,601.68171 345.22413,599.99289 343.54492,598.81744 C 341.86571,597.642 337.32471,597.66372 336.82096,599.67878 C 336.82096,599.67878 337.15196,606.87622 337.4878,610.57048 C 337.82364,614.26472 332.78614,618.3031 329.76359,620.98984 C 327.38518,623.10398 330.93097,628.24745 333.04221,633.93762 L 283.77949,624.60188 C 283.58012,622.46314 283.1258,619.35635 282.08461,617.79457 C 281.12905,616.36122 276.82865,615.71811 273.27678,615.40506 C 273.67153,613.72802 273.57592,612.71895 272.52658,611.93194 C 271.70692,611.3172 256.7798,610.01309 244.90834,609.04231 C 244.87308,608.88073 244.84254,608.70598 244.7972,608.56996 C 243.62176,605.04364 229.02146,593.44054 224.31969,587.73125 C 219.61793,582.02196 215.58322,562.2115 209.5381,552.47214 C 208.35175,550.56082 207.01023,548.97627 205.59263,547.63756 C 205.64731,545.81021 205.69537,544.15087 205.75934,543.83102 C 205.86836,543.28594 205.23557,540.8199 204.92579,539.02423 C 205.49058,539.06531 205.91409,539.08501 206.25947,538.96866 C 206.76189,538.79939 208.27923,538.8841 209.37139,539.05201 C 210.46354,539.21993 211.56161,538.97235 212.31659,538.55188 C 213.07156,538.13141 214.08596,538.23547 214.76167,537.63498 C 215.51664,536.9633 215.67493,536.11157 216.1787,535.35661 C 216.68247,534.60165 215.59892,533.58564 215.17844,532.57812 C 214.75798,531.5706 215.03953,529.71626 215.03952,529.71627 C 215.03952,529.71627 215.28958,528.77157 215.28958,528.77158 C 215.28958,528.77158 214.51546,528.32737 213.73362,528.21588 C 213.75239,528.2115 213.82938,528.18025 213.98369,528.13253 C 214.61736,527.96951 215.12287,527.68798 215.12287,527.68797 C 215.12287,527.68797 216.11684,527.02362 216.09535,526.77106 C 216.04564,526.17999 215.80962,524.81704 214.92838,524.10371 C 214.92838,524.10371 216.00588,523.85605 216.76218,523.52022 C 217.5185,523.18439 217.98721,522.47167 217.73466,521.46414 C 217.48211,520.45662 214.37752,517.80137 213.70584,517.12968 C 213.03416,516.45801 213.2335,515.29587 213.2335,515.29588 C 213.2335,515.29588 212.90008,514.43455 212.90008,514.43454 L 213.2335,513.85106 L 212.56666,512.26732 C 212.56666,512.26732 213.2335,511.26707 213.2335,511.26706 C 213.2335,511.26706 213.15257,509.333 212.81672,507.82173 C 212.59436,506.82111 211.89166,505.1961 211.34412,503.9874 C 212.94975,502.62928 214.10625,497.65737 214.56717,496.73553 C 215.07093,495.72801 214.23496,494.04644 214.06704,493.20684 C 213.89913,492.36724 214.07189,492.19333 213.40021,490.17828 C 212.76081,488.26011 208.93016,485.57287 205.23143,485.48262 C 200.32061,478.54522 200.21552,471.02355 189.39401,464.4772 C 184.99806,461.8181 180.44265,460.7741 176.16837,460.7818 z M 271.72082,624.04618 C 274.75327,624.7935 278.1495,625.79713 278.05579,626.54683 C 277.88787,627.89019 277.04342,629.37726 278.72263,629.88102 C 280.20821,630.32669 283.01209,627.76089 283.66835,627.13031 L 334.04247,637.07732 C 334.16172,637.59318 334.24996,638.11734 334.32032,638.63328 C 335.32784,646.02177 329.76503,671.86042 314.14844,676.22632 C 298.53187,680.59225 289.98404,665.82999 284.94646,658.77737 C 279.90885,651.72472 275.04417,639.96578 272.69329,636.27156 C 272.16358,635.43916 271.41936,634.69927 270.52607,633.99319 C 270.82504,631.28618 271.26768,627.52137 271.72082,624.04618 z"
     style="fill:#000000;stroke:none;stroke-width:0.88911849;stroke-opacity:1" /><path
     id="path71"
     d="M 555.50402,455.44954 C 554.75877,455.44614 553.97143,455.43982 553.15966,455.4796 C 544.26669,455.91538 538.59935,462.25959 536.41852,467.74241 C 534.88395,468.26403 533.36647,469.15992 532.0003,470.59772 C 528.55343,474.21898 529.16368,480.90831 530.10678,483.28131 C 530.71709,484.81598 532.57852,485.48936 534.19438,485.98635 C 534.00888,489.00707 533.91362,492.33332 534.01405,495.18346 C 534.20877,500.72871 538.03532,506.57657 536.35841,510.81253 C 533.84154,517.1701 517.4703,529.32921 510.93111,554.03293 C 510.03318,557.42528 512.50467,559.04383 516.251,560.58512 C 515.94234,562.4403 515.72412,564.315 515.64988,566.20557 C 515.53966,569.01392 514.80019,571.90941 513.60608,574.86167 L 508.94742,573.65944 L 495.1217,578.01755 L 492.8675,584.17901 L 488.23889,584.17901 L 473.5115,607.41223 L 466.44836,611.07905 L 465.96746,619.34442 L 460.61751,627.79013 L 463.05204,640.11306 C 461.28872,641.37603 459.97938,642.45017 459.5355,643.38915 C 459.34014,643.80235 459.21702,644.51973 459.20488,645.43295 C 435.37131,663.34239 423.09715,678.48055 421.36449,683.36351 C 419.36639,688.99451 424.44978,747.12909 425.90293,748.94551 C 427.3561,750.76195 428.81706,747.30815 428.99869,745.12841 C 429.18034,742.94867 426.63862,708.79603 428.81836,708.06947 C 430.9981,707.3429 434.97197,718.61765 436.06183,727.15497 C 437.1517,735.69229 437.17529,736.77656 432.81579,752.94295 C 428.45632,769.10934 417.19718,784.90664 415.74404,791.26423 C 414.29088,797.6218 416.82868,829.96702 416.46538,835.41637 C 416.10209,840.86571 413.19715,847.20075 412.10727,855.19315 C 411.0174,863.18553 413.9211,867.92377 412.46794,869.74022 C 411.01478,871.55667 409.9132,875 409.91319,875 C 409.91319,875 438.79691,875 438.79692,875 C 438.79692,875 438.80216,872.99803 438.07558,871.36323 C 437.349,869.72842 431.53648,867.56319 429.72004,865.20177 C 427.90358,862.84039 426.44787,851.74599 425.90293,846.29661 C 425.358,840.84726 429.16987,809.42977 430.44138,807.79498 C 431.71289,806.16018 433.71355,797.24147 434.25848,793.60859 C 434.80342,789.97569 448.96099,763.64157 452.41225,759.64541 C 454.08122,757.71292 458.13737,754.81007 463.0821,751.56037 C 463.94579,757.48511 464.661,763.32522 464.58489,765.83693 C 464.40324,771.83121 464.22296,783.46006 460.22678,790.36256 C 456.2306,797.26507 454.60371,809.06248 454.967,812.51376 C 455.33029,815.96502 464.58746,826.68832 468.40199,832.50094 C 472.21653,838.31358 477.86306,854.30187 478.77128,857.02657 C 479.67951,859.75124 480.03362,868.62816 480.03363,868.62815 C 477.67225,871.35283 476.57719,875 476.5772,875 C 476.5772,875 503.65758,875 503.65758,875 C 503.65758,875 503.09698,872.63996 501.64383,870.64189 C 500.19067,868.6438 496.37494,866.09434 493.46862,863.18803 C 490.56231,860.28171 484.21925,845.94385 483.12939,840.67615 C 482.03952,835.40845 479.49394,813.04829 479.31229,809.77867 C 479.13064,806.50906 478.40668,793.99412 478.95162,790.54289 C 479.49656,787.09164 488.19443,762.73869 490.19253,754.7463 C 491.37403,750.02029 493.38544,740.86487 494.94136,732.50493 C 504.19111,727.55966 513.54441,723.15754 516.55156,723.15754 C 521.27432,723.15754 535.24347,731.31436 552.3181,738.03521 C 569.39272,744.75608 592.82684,745.8601 597.91291,752.76261 C 602.99897,759.66512 589.74163,796.35145 589.1967,799.43944 C 588.65177,802.5274 585.02944,807.79883 583.57624,811.43175 C 582.12309,815.06465 583.58408,833.78022 582.49423,839.77447 C 581.40436,845.76876 577.03712,865.18342 575.2207,867.72647 C 573.40425,870.2695 573.02661,875 573.02662,875 C 573.02662,875 601.54967,875 601.54968,875 C 601.54968,875 601.0126,874.08532 600.46766,871.72391 C 599.92273,869.36252 595.55292,868.46483 593.55481,866.10345 C 591.55671,863.74207 594.8341,852.11584 596.65056,841.21716 C 598.46701,830.31847 605.74705,820.68377 607.20019,817.23254 C 608.65335,813.78128 607.92286,811.42404 607.74119,804.15822 C 607.58369,797.85808 617.9488,780.78585 629.23117,764.39425 C 636.41245,774.36981 648.12069,796.47414 648.76751,797.60603 C 649.49409,798.87754 652.78581,809.60484 654.05735,812.87443 C 655.32887,816.14403 662.22337,824.32829 663.49491,828.14284 C 664.76642,831.95738 668.3953,848.11432 668.21369,850.29404 C 668.03203,852.47377 670.20395,866.272 669.2957,867.90681 C 668.38748,869.54161 666.771,875 666.771,875 C 666.771,875 694.93342,875 694.93339,875 C 694.93339,875 695.08888,873.71674 694.36233,872.44525 C 693.63575,871.17373 688.92745,869.17567 688.20087,868.26748 C 687.47428,867.35925 683.84152,855.37102 679.84532,847.37862 C 675.84914,839.38625 674.58949,824.31796 674.04453,821.22998 C 673.4996,818.14202 675.10566,808.33344 673.83414,804.51889 C 672.56263,800.70435 667.83997,793.44138 665.4786,791.6249 C 663.11721,789.80846 663.66362,784.8952 656.94272,771.99839 C 652.92162,764.28221 649.76842,748.59526 647.86584,737.16359 C 654.34134,727.2559 658.97402,719.69947 660.21882,718.22837 C 662.21691,715.86698 673.66146,712.77653 685.10511,710.2335 C 696.54874,707.69047 715.25898,692.82202 718.34695,689.9157 C 721.43491,687.00938 721.81762,687.17053 732.353,663.55667 C 740.17245,646.02867 742.17198,627.3228 742.69223,618.83347 C 748.98006,618.74192 756.09862,617.90448 761.5974,615.25682 C 776.31064,608.17267 776.07293,600.01631 779.3905,600.34909 C 783.0234,600.71238 792.99929,601.45334 793.90751,598.3654 C 794.24028,597.23338 791.79521,595.37237 788.55755,593.49634 C 791.25026,590.74405 794.16081,587.46256 794.44851,585.83208 C 794.99345,582.74411 780.64504,575.10602 777.55709,574.56112 C 774.46912,574.01618 759.77848,579.2825 753.60253,578.91922 C 747.4266,578.55594 733.4233,574.20437 730.88026,573.65944 C 728.33723,573.1145 721.42968,578.55593 719.06829,578.91922 C 716.7069,579.28251 715.80527,577.45566 713.98884,576.18413 C 712.1724,574.91262 707.26027,574.93612 706.71531,577.11587 C 706.71531,577.11587 707.1034,584.90158 707.46671,588.89779 C 707.82999,592.89397 702.3808,597.26242 699.11116,600.16875 C 696.53755,602.45642 700.37423,608.01723 702.65776,614.17481 L 649.36863,604.07602 C 649.15298,601.76247 648.63148,598.40181 647.50516,596.71232 C 646.47149,595.16182 641.81963,594.46615 637.97744,594.12751 C 638.40446,592.31341 638.30104,591.22185 637.16593,590.37052 C 636.27927,589.70553 620.13211,588.29484 607.29036,587.24471 C 607.25221,587.06992 607.21917,586.88089 607.17013,586.73376 C 605.89862,582.91922 590.105,570.36775 585.01893,564.19183 C 581.01986,559.33582 577.60538,542.15335 573.14684,529.89803 C 573.65748,529.91759 574.0748,529.87552 574.16874,529.68764 C 574.44048,529.14415 577.71148,528.42392 578.34651,528.51546 C 578.98155,528.60701 580.51065,527.4374 580.60071,526.89244 C 580.69081,526.3475 581.58854,524.97025 582.04339,524.8787 C 582.49823,524.78715 583.15415,523.89215 583.3358,523.25568 C 583.51745,522.61919 584.32626,520.70616 584.41781,519.97958 C 584.50936,519.25301 583.15286,517.96983 583.51613,517.515 C 583.87942,517.06016 582.43681,511.98727 582.16361,511.53387 C 581.89042,511.08048 580.7236,511.08827 580.45043,510.36169 C 580.26442,509.86471 579.51317,508.25632 578.07601,507.02548 C 577.95539,505.98066 577.95578,505.04178 577.95579,505.04179 C 577.95579,505.04179 577.89565,504.04993 577.89568,504.04995 L 577.7454,503.98984 C 577.7454,503.98984 577.33424,503.80596 576.93389,503.62917 C 577.04127,503.58732 577.68528,503.35865 577.68528,503.35866 C 577.68528,503.35866 578.33968,502.8504 578.31646,502.57721 C 578.26268,501.93782 578.0074,498.99073 577.05411,498.2191 C 577.0947,498.20484 577.96813,497.8827 578.7673,497.52782 C 579.58543,497.16452 580.91985,496.81715 580.5406,495.63429 C 579.52194,492.45478 576.78886,489.89885 576.06226,489.17227 C 575.33569,488.44569 575.31087,487.39898 575.31087,487.39897 C 575.31087,487.39897 574.89008,486.79785 574.89008,486.79786 L 575.13053,486.10657 C 575.13053,486.10657 574.70973,484.84421 574.70975,484.84422 C 574.70975,484.84422 575.95895,483.7738 575.88193,483.10098 C 575.70029,481.51994 575.5187,481.82159 575.31087,479.91505 C 575.27061,479.54299 575.10642,479.0643 574.92014,478.53248 C 575.70369,478.4798 576.39348,478.45697 576.84372,478.53248 C 578.47269,478.80569 580.18436,475.78094 580.27009,474.59516 C 580.35583,473.40938 579.2271,466.3858 575.88193,464.28598 C 575.20851,463.8633 573.40901,463.60597 571.46371,463.56464 C 568.66544,458.54039 564.37704,455.49011 555.50402,455.44954 z M 636.29431,603.4749 C 639.57461,604.2833 643.24844,605.36896 643.14706,606.17993 C 642.96541,607.63309 642.05197,609.2417 643.8684,609.78664 C 645.46912,610.26685 648.49213,607.50797 649.21835,606.81111 L 703.67966,617.57112 C 703.80943,618.13157 703.93384,618.69371 704.01028,619.25425 C 705.10015,627.24663 699.08267,655.19716 682.18969,659.9199 C 665.29671,664.64267 656.05026,648.67385 650.60092,641.04479 C 645.15158,633.41571 639.88932,620.69566 637.34627,616.6995 C 636.77326,615.79907 635.96822,614.9987 635.00191,614.23492 C 635.32532,611.30665 635.80413,607.23413 636.29431,603.4749 z"
     style="fill:#000000;stroke:none" /><path
     id="path131"
     d="M 932.87403,428.17283 C 931.4361,428.17841 930.10912,428.40791 928.20083,428.64646 C 925.14756,429.02812 919.90611,432.9325 918.66498,434.07747 C 917.42383,435.22245 914.84713,438.94419 910.0764,442.76078 C 909.613,443.1315 909.2851,443.50243 909.06598,443.86593 L 902.75085,442.09769 C 902.75085,442.09769 914.11811,458.23286 914.11809,458.23285 C 914.11809,458.23285 914.36877,458.2342 914.40227,458.23285 C 913.72406,461.41963 912.92109,465.52465 912.69718,468.8107 C 912.30026,474.64551 913.64723,479.0384 913.26555,483.80914 C 912.74497,490.32177 886.53746,504.98123 884.24751,511.46942 C 883.27154,514.23469 884.3964,518.05752 886.67884,521.95254 C 883.45407,527.51668 881.10295,533.47912 880.61631,539.50861 C 879.63177,551.71774 876.49816,568.25527 870.89101,582.04102 L 865.17581,581.88314 L 852.38767,586.46161 L 846.57775,613.55353 C 840.0565,620.95277 834.04145,629.23608 832.84234,631.77269 C 832.49077,632.51627 832.27859,634.0451 832.30555,636.09855 C 809.22773,653.9106 797.26638,668.75179 795.51991,673.67359 C 793.42078,679.58931 798.76121,740.66342 800.28783,742.57168 C 801.81447,744.47997 803.34931,740.85153 803.54012,738.56157 C 803.73095,736.27161 801.06071,700.39207 803.35067,699.62878 C 805.64063,698.86547 809.84701,710.71032 810.99198,719.67933 C 812.13696,728.64832 812.13013,729.78742 807.55023,746.77124 C 802.97033,763.75508 791.14189,780.35115 789.61526,787.03021 C 788.08861,793.70924 790.75474,827.68997 790.37307,833.41485 C 789.99142,839.13974 786.93956,845.79511 785.7946,854.19164 C 784.64962,862.58814 787.70018,867.56597 786.17351,869.47426 C 784.64688,871.38256 783.48959,875 783.48958,875 C 783.48958,875 813.83378,875 813.83379,875 C 813.83379,875 813.83927,872.8968 813.07597,871.17935 C 812.31265,869.46187 806.2062,867.18715 804.29794,864.70633 C 802.38964,862.22555 800.86033,850.57017 800.28783,844.84524 C 799.71534,839.12036 803.71993,806.11427 805.05576,804.39682 C 806.39156,802.67936 808.49339,793.30968 809.06587,789.49311 C 809.63836,785.67652 824.51179,758.01083 828.13756,753.81261 C 829.89093,751.78241 834.15217,748.73277 839.34692,745.31876 C 840.25429,751.54308 841.00567,757.67849 840.92571,760.3172 C 840.73488,766.61457 840.54549,778.83143 836.34724,786.08294 C 832.14899,793.33447 830.43984,805.72841 830.8215,809.3542 C 831.20315,812.97997 840.92837,824.24549 844.93582,830.35202 C 848.94324,836.45857 854.87529,853.25529 855.82942,856.11775 C 856.78357,858.9802 857.15562,868.30597 857.1556,868.30596 C 854.67481,871.16841 853.52437,875 853.5244,875 C 853.5244,875 881.97407,875 881.97407,875 C 881.97407,875 881.38512,872.52063 879.8585,870.42153 C 878.33186,868.3224 874.32319,865.64404 871.26992,862.59077 C 868.21665,859.53749 861.55284,844.47465 860.40789,838.9406 C 859.26291,833.40654 856.58862,809.91575 856.39778,806.48082 C 856.20695,803.04588 855.44642,789.89813 856.01887,786.27239 C 856.59137,782.64663 865.76065,757.0623 867.85975,748.66578 C 869.10099,743.7008 871.18253,734.08244 872.81712,725.29979 C 882.53532,720.10397 892.36059,715.47976 895.52002,715.47976 C 900.48159,715.47976 915.15709,724.04902 933.09506,731.10971 C 951.03304,738.17042 975.65211,739.33026 980.99534,746.58179 C 986.33857,753.83332 972.41091,792.37466 971.8384,795.61879 C 971.26591,798.86289 967.46037,804.40086 965.93375,808.21748 C 964.4071,812.03407 965.942,831.69598 964.79702,837.99333 C 963.65204,844.2907 959.064,864.68706 957.15571,867.35869 C 955.24741,870.0303 954.85069,875 954.85069,875 C 954.85069,875 984.816,875 984.81599,875 C 984.81599,875 984.25178,874.03907 983.67927,871.55825 C 983.10678,869.07747 978.51597,868.13438 976.41687,865.6536 C 974.31774,863.17282 977.76086,850.95873 979.66916,839.50896 C 981.57746,828.05919 989.22556,817.93731 990.75222,814.31158 C 992.27885,810.68582 991.51138,808.20938 991.32058,800.57617 C 991.15511,793.95746 1002.0443,776.02199 1013.8971,758.80157 C 1021.4416,769.28154 1033.7732,792.50355 1034.4529,793.69267 C 1035.2162,795.02848 1038.6428,806.29819 1039.9786,809.73311 C 1041.3144,813.16804 1048.5575,821.76612 1049.8934,825.77355 C 1051.2292,829.78097 1055.0416,846.75487 1054.8508,849.04481 C 1054.66,851.33475 1056.9417,865.83068 1055.9876,867.54814 C 1055.0333,869.26561 1053.3351,875 1053.3352,875 C 1053.3352,875 1082.9215,875 1082.9215,875 C 1082.9215,875 1083.0849,873.65186 1082.3216,872.31607 C 1081.5583,870.98026 1076.6121,868.88117 1075.8486,867.92705 C 1075.0853,866.9729 1071.2688,854.3785 1067.0706,845.98197 C 1062.8723,837.58547 1061.549,821.75527 1060.9764,818.51114 C 1060.404,815.26704 1062.1227,804.96251 1060.7871,800.95508 C 1059.4511,796.94765 1054.4898,789.31744 1052.0089,787.40912 C 1049.5282,785.50083 1050.1022,780.33913 1043.0414,766.79021 C 1038.8137,758.67747 1035.5039,742.1744 1033.5057,730.16244 C 1040.2954,719.77285 1045.1455,711.84492 1046.4516,710.30135 C 1048.5507,707.82057 1060.5741,704.57385 1072.5962,701.90223 C 1084.6184,699.23061 1104.2749,683.61035 1107.519,680.55708 C 1110.7632,677.5038 1111.1651,677.67311 1122.2332,652.86523 C 1130.4496,634.45094 1132.5503,614.79923 1133.0952,605.88064 C 1139.7009,605.78446 1147.1796,604.90468 1152.9564,602.12314 C 1168.4136,594.68079 1168.1638,586.11201 1171.6491,586.46161 C 1175.4657,586.84328 1185.946,587.6217 1186.9001,584.37762 C 1187.2497,583.18836 1184.6811,581.23325 1181.2798,579.26236 C 1184.1085,576.37091 1187.1663,572.92349 1187.4686,571.21057 C 1188.0411,567.96646 1172.9671,559.94215 1169.723,559.3697 C 1166.4788,558.7972 1151.0454,564.32981 1144.5572,563.94817 C 1138.0691,563.56651 1123.3576,558.99491 1120.686,558.42243 C 1118.0144,557.84993 1110.7575,563.5665 1108.2768,563.94817 C 1105.7961,564.32982 1104.8489,562.4106 1102.9405,561.07478 C 1101.0322,559.73897 1095.8717,559.76366 1095.2992,562.05363 C 1095.2992,562.05363 1095.7069,570.23302 1096.0885,574.43129 C 1096.4703,578.62954 1090.7454,583.21887 1087.3106,586.27216 C 1084.6068,588.6755 1088.6375,594.51749 1091.0364,600.98642 L 1035.0528,590.37699 C 1034.8263,587.94646 1034.2784,584.41587 1033.0951,582.64096 C 1032.0105,581.01395 1027.151,580.28175 1023.1172,579.92545 C 1023.5656,578.0202 1023.4254,576.87272 1022.2331,575.97849 C 1021.3024,575.28043 1004.3651,573.79768 990.87852,572.69462 C 990.83816,572.50897 990.80423,572.3139 990.75222,572.15784 C 989.41641,568.15042 972.98204,557.64824 967.63883,551.16002 C 962.2956,544.67182 960.77332,520.45356 953.90342,509.38543 C 953.8764,509.34189 953.83633,509.30248 953.80869,509.25912 C 954.51752,509.62793 955.07951,509.92631 955.32433,510.04851 C 956.27848,510.52483 958.75297,511.78731 959.52389,511.94305 C 960.95587,512.23006 963.71236,513.11007 965.14436,513.39553 C 966.57633,513.68101 968.67675,512.89451 969.34392,512.41669 C 970.01106,511.93885 971.35935,510.90673 972.2173,510.33269 C 973.07527,509.75868 972.19949,508.79932 970.29119,506.98567 C 968.38289,505.17203 962.18584,498.12521 960.85007,496.3131 C 959.51426,494.50098 957.88338,488.46735 957.78723,486.27204 C 957.69106,484.07674 957.50304,480.55685 957.50305,480.55685 C 957.50305,480.55685 956.58738,478.88335 956.58735,478.88334 L 957.06099,478.59916 C 957.06099,478.59916 957.1557,476.70463 957.15571,476.70462 C 957.15571,476.70462 957.00017,475.23682 956.36632,474.84165 C 956.55167,474.50126 956.98527,473.87543 957.8188,473.7365 C 958.747,473.58079 959.93564,473.0501 959.65019,471.90512 C 959.36471,470.76014 955.96135,466.92166 955.19802,466.15835 C 954.4347,465.39502 953.68237,464.70586 953.68239,464.70587 C 953.68239,464.70587 953.01931,463.03235 953.0193,463.03236 L 953.42979,462.65345 L 953.05088,461.422 C 953.05088,461.422 953.14563,460.22212 953.1456,460.22212 C 953.1456,460.22212 952.67474,459.47516 952.29306,457.75922 C 951.93657,456.15645 951.05771,453.95791 950.93531,453.65438 C 951.27185,453.57793 951.81943,453.46493 951.81943,453.46493 C 951.81943,453.46493 958.26085,435.05631 958.26086,435.05632 L 952.79827,438.11916 C 951.74123,436.64075 948.89225,433.74974 946.9252,432.46712 C 944.73142,431.03666 943.46282,430.66717 941.84152,430.47785 C 940.22024,430.28855 938.11678,428.91652 935.74742,428.45701 C 934.63793,428.24232 933.73679,428.16947 932.87403,428.17283 z M 1021.3174,589.74548 C 1024.7636,590.59476 1028.6231,591.73531 1028.5166,592.58729 C 1028.3259,594.11393 1027.3663,595.80388 1029.2744,596.37637 C 1030.9561,596.88086 1034.132,593.98248 1034.895,593.25038 L 1092.1101,604.55447 C 1092.2464,605.14325 1092.3771,605.73382 1092.4574,606.3227 C 1093.6023,614.7192 1087.3121,644.08303 1069.565,649.04457 C 1051.8178,654.00614 1042.0722,637.22987 1036.3474,629.21506 C 1030.6225,621.20021 1025.0942,607.83699 1022.4226,603.63877 C 1021.8206,602.69281 1020.9748,601.85197 1019.9597,601.04957 C 1020.2995,597.97324 1020.8025,593.69479 1021.3174,589.74548 z"
     style="fill:#000000;stroke:none" /></g>
<rect
   y="875"
   x="0"
   height="125"
   width="1750"
   id="rect3339"
   style="opacity:1;fill:#000000;fill-opacity:1;fill-rule:nonzero;stroke:none;stroke-width:0.30000001;stroke-linecap:butt;stroke-linejoin:miter;marker:none;marker-start:none;marker-mid:none;marker-end:none;stroke-miterlimit:4;stroke-dasharray:none;stroke-dashoffset:0;stroke-opacity:1;visibility:visible;display:inline;overflow:visible;enable-background:accumulate" /><g
   id="g3831"
   transform="translate(281.51585,6.7672081)"><path
     transform="matrix(0.9925841,-0.1215596,0.1215596,0.9925841,-15.240449,145.24017)"
     id="path3608"
     d="M 1218.5174,89.513889 L 1247.3924,167.88889 L 1191.2674,164.10764 L 1235.1736,189.54514 L 1166.8611,226.54514 L 1249.7361,223.29514 L 1229.2674,274.32639 L 1266.9236,240.51389 L 1281.2049,318.04514 L 1303.9861,237.29514 L 1345.8299,272.23264 L 1325.8924,227.26389 L 1403.5486,237.54514 L 1332.8299,190.26389 L 1379.8611,160.73264 L 1331.6111,165.73264 L 1364.7986,96.326389 L 1298.1736,148.82639 L 1284.3299,93.920139 L 1273.9861,142.23264 L 1218.5174,89.513889 z"
     style="opacity:1;fill:#ffffff;fill-opacity:1;fill-rule:nonzero;stroke:none;stroke-width:0.30000001;stroke-linecap:butt;stroke-linejoin:miter;marker:none;marker-start:none;marker-mid:none;marker-end:none;stroke-miterlimit:4;stroke-dasharray:none;stroke-dashoffset:0;stroke-opacity:1;visibility:visible;display:inline;overflow:visible;filter:url(#filter3741);enable-background:accumulate" /><path
     id="path3745"
     d="M 1306.9444,173.61111 L 698.61111,129.16667 L 944.44444,163.88889 L 587.5,145.83333 L 1004.1667,179.16667 L 522.22222,183.33333 L 1029.1667,191.66667 L 740.27778,204.16667 L 1040.2778,204.16667 L 811.11111,230.55556 L 1308.3333,194.44444 L 1306.9444,173.61111 z"
     style="fill:#ffffff;fill-opacity:1;fill-rule:evenodd;stroke:none;stroke-width:1px;stroke-linecap:butt;stroke-linejoin:miter;stroke-opacity:1;filter:url(#filter3827)" /></g></svg>