<svg version="1.1" id="Layer_1" xmlns="http://www.w3.org/2000/svg" x="0" y="0" viewBox="0 0 36 36" style="enable-background:new 0 0 36 36" xml:space="preserve"><path d="M18 35.9C8.1 35.9.1 27.9.1 18S8.1.1 18 .1s17.9 8 17.9 17.9-8 17.9-17.9 17.9zm0-32.3C10.1 3.6 3.6 10.1 3.6 18S10.1 32.4 18 32.4 32.4 25.9 32.4 18 25.9 3.6 18 3.6z"/><circle cx="18" cy="10.4" r="2.5"/><path d="M21.6 25.9c-.1.2-.2.5-.3.6-.8 1-2 1.6-3.2 1.6-.6 0-1.2 0-1.8-.1-1-.1-2.2-1.5-2-2.9l.4-2.9c.3-1.7.5-3.4.8-5.1v-.3c0-.7-.2-1-.8-1-.3 0-.5-.1-.8-.1-.3-.1-.4-.4-.4-.7 0-.3.2-.5.5-.6H19.2c.6 0 .9.3.9.9 0 .5-.1 1.1-.2 1.6-.3 1.9-.6 3.9-.9 5.8-.1.6-.2 1.3-.3 1.9 0 .3 0 .6.1.9.1.4.4.6.7.6.3 0 .6-.1.9-.3.2-.1.4-.3.7-.4.3-.2.6 0 .5.5z"/></svg>