<svg width="220" height="287" fill="none" xmlns="http://www.w3.org/2000/svg"><path d="M110 148c60.751 0 110 14.551 110 32.5 0 .722-.082 1.439-.239 2.149a88.36 88.36 0 0 1 .239 6.47C220 243.177 170.751 287 110 287S0 243.177 0 189.119c0-2.174.081-4.331.238-6.47A9.929 9.929 0 0 1 0 180.5C0 162.551 49.249 148 110 148Zm91 50.763C181.205 207.356 147.833 213 110 213s-71.205-5.644-91-14.237v1.034h-.223c5.88 40.167 44.48 71.186 91.223 71.186s85.342-31.019 91.223-71.186H201v-1.034ZM110 164c-29.285 0-55.187 3.527-73.248 8.863-8.573 2.533-14.585 5.244-18.254 7.637 3.669 2.393 9.68 5.104 18.254 7.637C54.813 193.473 80.715 197 110 197c29.285 0 55.187-3.527 73.248-8.863 8.573-2.533 14.584-5.244 18.253-7.637-3.669-2.393-9.68-5.104-18.253-7.637C165.187 167.527 139.285 164 110 164Zm0-164c60.751 0 110 49.249 110 110 0 4.055-.22 8.059-.647 12h-81.852c-4.63 10.595-15.199 18-27.501 18-12.302 0-22.871-7.405-27.501-18H.649C.222 118.059 0 114.055 0 110 0 49.249 49.249 0 110 0Zm0 94c-8.837 0-16 7.163-16 16s7.163 16 16 16 16-7.163 16-16-7.163-16-16-16Zm0-76c-48.115 0-87.602 36.936-91.656 84H81.08C84.581 89.316 96.202 80 110 80c13.798 0 25.419 9.316 28.92 22h62.736C197.602 54.936 158.115 18 110 18Z" fill="#000"/></svg>