<svg width="220" height="220" fill="none" xmlns="http://www.w3.org/2000/svg"><path d="M110 0c60.751 0 110 49.249 110 110s-49.249 110-110 110S0 170.751 0 110 49.249 0 110 0ZM18.777 122c5.88 45.14 44.48 80 91.223 80s85.342-34.86 91.223-80h-63.722c-4.63 10.595-15.199 18-27.501 18-12.302 0-22.871-7.405-27.501-18H18.777ZM110 94c-8.837 0-16 7.163-16 16s7.163 16 16 16 16-7.163 16-16-7.163-16-16-16Zm0-76c-48.115 0-87.602 36.936-91.656 84H81.08C84.581 89.316 96.202 80 110 80c13.798 0 25.419 9.316 28.92 22h62.736C197.602 54.936 158.115 18 110 18Z" fill="#000"/></svg>