<svg xmlns="http://www.w3.org/2000/svg" viewBox="0 0 640 640"><!--!Font Awesome Pro 7.2.0 by @fontawesome - https://fontawesome.com License - https://fontawesome.com/license (Commercial License) Copyright 2026 Fonticons, Inc.--><path d="M73 39.1c-9.4-9.4-24.6-9.4-33.9 0-9.3 9.4-9.4 24.6-.1 34l528 528c9.4 9.4 24.6 9.4 33.9 0 9.3-9.4 9.4-24.6 0-33.9l-249-249V131.4c0-19.5-15.8-35.3-35.3-35.3-9.4 0-18.3 3.7-25 10.3L216 182.1 73 39.1zM249.9 216l54.1-54.1v108.2L249.9 216zm-79.7 56-48-48H112c-26.5 0-48 21.5-48 48v96c0 26.5 21.5 48 48 48h62.1l117.7 117.7c6.6 6.6 15.6 10.3 25 10.3 19.5 0 35.3-15.8 35.3-35.3v-54.9l-48-48V478l-103-103c-4.5-4.5-10.6-7-17-7h-72v-96h58.2zm301.2-97.5c-8.4 10.3-6.8 25.4 3.5 33.8 32.5 26.4 53.2 66.7 53.2 111.8 0 33-11.1 63.4-29.8 87.7l34.2 34.2c27.2-33.1 43.6-75.6 43.6-121.9 0-60.1-27.7-113.8-70.9-149-10.3-8.4-25.4-6.8-33.8 3.5zM428.5 338l35.3 35.3A95.51 95.51 0 0 0 480 320c0-30.1-13.9-56.9-35.5-74.5-10.3-8.4-25.4-6.8-33.8 3.5-8.4 10.3-6.8 25.4 3.5 33.8 10.9 8.8 17.7 22.2 17.7 37.3 0 6.4-1.2 12.4-3.5 18z"/></svg>