<svg xmlns="http://www.w3.org/2000/svg" viewBox="0 0 640 640"><!--!Font Awesome Pro 7.2.0 by @fontawesome - https://fontawesome.com License - https://fontawesome.com/license (Commercial License) Copyright 2026 Fonticons, Inc.--><path d="M316.7 96c-9.4 0-18.3 3.7-25 10.3L174.1 224H112c-26.5 0-48 21.5-48 48v96c0 26.5 21.5 48 48 48h62.1l117.7 117.7c6.6 6.6 15.6 10.3 25 10.3 19.5 0 35.3-15.8 35.3-35.3V131.3C352 111.8 336.2 96 316.7 96zM201 265l103-103v316.1l-103-103c-4.5-4.5-10.6-7-17-7h-72v-96h72c6.4 0 12.5-2.5 17-7zm304.1-94c-10.3-8.4-25.4-6.8-33.8 3.5-8.4 10.3-6.8 25.4 3.5 33.8C507.3 234.7 528 274.9 528 320c0 45.1-20.7 85.3-53.2 111.8-10.3 8.4-11.8 23.5-3.5 33.8 8.3 10.3 23.5 11.8 33.8 3.5 43.2-35.2 70.9-88.9 70.9-149 0-60.1-27.7-113.8-70.9-149zm-60.5 74.5c-10.3-8.4-25.4-6.8-33.8 3.5-8.4 10.3-6.8 25.4 3.5 33.8C425.1 291.6 432 305 432 320c0 15-6.9 28.4-17.7 37.3-10.3 8.4-11.8 23.5-3.5 33.8 8.3 10.3 23.5 11.8 33.8 3.5 21.5-17.7 35.4-44.5 35.4-74.6 0-30.1-13.9-56.9-35.5-74.5z"/></svg>